<svg xmlns="http://www.w3.org/2000/svg" xmlns:xlink="http://www.w3.org/1999/xlink" width="539" height="140" viewBox="0 0 539 140" fill="none"><defs><style>@font-face{font-family:'草檀斋毛泽东字体';src:url('https://r2.wic.edu.kg/fonts/maozedong-1.woff2') format('woff2');font-display:swap;}@font-face{font-family:'MaoZedong';src:url('https://r2.wic.edu.kg/fonts/maozedong.woff2') format('woff2');font-display:swap;}</style></defs><g  clip-path="url(#clip-path-0_1)"><g ><text transform="translate(150, 5)"><tspan x="0" y="51.09375" font-size="60" line-height="0"  fill="#FFFFFF"  font-family="草檀斋毛泽东字体" letter-spacing="2" >武汉城市学院</tspan></text></g><g ><text transform="translate(150, 79)"><tspan x="0" y="31.50390625" font-size="26" line-height="43"  fill="#FFFFFF"   font-family="Century Schoolbook" letter-spacing="2"  >City</tspan><tspan x="59.0478515625" y="31.50390625" font-size="26" line-height="43"  fill="#FFFFFF"   font-family="Roboto-Regular" letter-spacing="8"  > </tspan><tspan x="73.484375" y="31.50390625" font-size="26" line-height="43"  fill="#FFFFFF"   font-family="Century Schoolbook" letter-spacing="2"  >University</tspan><tspan x="221.5546875" y="31.50390625" font-size="26" line-height="43"  fill="#FFFFFF"   font-family="Roboto-Regular" letter-spacing="8"  > </tspan><tspan x="235.9912109375" y="31.50390625" font-size="26" line-height="43"  fill="#FFFFFF"   font-family="Century Schoolbook" letter-spacing="2"  >of</tspan><tspan x="261.6494140625" y="31.50390625" font-size="26" line-height="43"  fill="#FFFFFF"   font-family="Roboto-Regular" letter-spacing="8"  > </tspan><tspan x="276.0859375" y="31.50390625" font-size="26" line-height="43"  fill="#FFFFFF"  font-family="Century Schoolbook" letter-spacing="2" >Wuhan</tspan></text></g><g  clip-path="url(#clip-path-50l6YDZmFNKTr86l4fE3U)"><circle cx="66.716796875" cy="64.70283508300781" r="63.92071533203125"   fill="#394E28" ></circle><circle cx="66.71676635742188" cy="64.70283508300781" r="61.474884033203125"   fill="#FFFFFF" ></circle><path d="M19.1173 33.0482C18.5999 33.7067 18.0825 34.3652 17.5181 35.0707C17.0007 35.7292 16.5303 36.4347 16.013 37.1403L15.1663 36.4818C15.7307 35.7762 16.2952 35.0707 16.7655 34.4122C17.2829 33.7067 17.7533 33.0482 18.2236 32.3897L19.1173 33.0482ZM21.2338 33.0012C20.6694 32.6249 20.152 32.2956 19.6817 31.9664C19.2113 31.6371 18.6469 31.2609 17.9414 30.7435L18.741 29.6617C19.1643 30.132 19.6347 30.5553 20.1991 30.9787C20.7635 31.402 21.3279 31.7783 21.8923 32.1545L22.9271 30.7905C23.3504 30.2261 23.7737 29.6146 24.1971 29.0032L24.9967 29.6146C24.5263 30.1791 24.103 30.7435 23.6797 31.3079L22.6449 32.6719C23.9149 33.4715 25.0437 34.0359 26.0314 34.2711C27.0192 34.5063 27.8658 34.6474 28.5713 34.6474C29.2769 34.6474 29.6061 34.4593 29.5591 34.177C29.465 33.8478 29.1828 33.4715 28.6654 33.0482C29.1828 33.0012 29.6061 32.8601 30.0294 32.6249C30.782 33.6126 31.1583 34.2711 31.1583 34.6944C31.1583 35.0707 30.829 35.3529 30.1705 35.5411C29.512 35.7292 28.8065 35.8233 28.148 35.7762C27.4895 35.7292 26.8781 35.6822 26.2666 35.5411C25.7022 35.4 25.0907 35.1648 24.4322 34.8826C23.7737 34.6004 22.9741 34.13 22.0805 33.5186L20.4813 35.6822L22.2216 36.9521C22.6919 36.2936 23.1153 35.7292 23.4445 35.2118L24.2911 35.8703C23.8678 36.3877 23.3975 36.9521 22.9741 37.5165L25.0437 39.0687C25.5611 38.0339 25.9844 37.2814 26.2666 36.7169C26.4547 36.9051 26.737 37.1403 27.1132 37.4225C26.4547 38.5513 25.8433 39.7742 25.1848 41.0442C24.5263 42.3612 24.103 43.3489 23.8678 44.0544C23.4915 43.8192 23.0682 43.6311 22.5038 43.49C22.739 43.1607 22.9741 42.7845 23.2093 42.3141L20.8105 40.5268C20.3402 40.1505 19.8228 39.8213 19.3524 39.539L20.105 38.5513C20.5283 38.9276 20.9987 39.2568 21.422 39.6331L23.7737 41.4204L24.4793 40.1035L19.7758 36.5758L18.8821 37.7517C18.4117 38.4102 17.9414 39.0217 17.5181 39.7272L16.7185 39.1157C17.2359 38.5043 17.7062 37.8928 18.1766 37.2343L21.2338 33.0012ZM22.6919 28.5799C22.6919 29.0032 22.739 29.4265 22.786 29.8028C22.3627 29.8028 21.6572 29.8969 20.6224 30.132C20.6224 29.8028 20.5754 29.4265 20.4343 29.0502C21.375 28.815 22.1275 28.6269 22.6919 28.5799Z"   fill="#394E28" ></path><path d="M32.4282 19.2199C32.3341 19.6902 32.3341 20.0665 32.3341 20.4428C31.2993 20.2547 30.3116 20.1606 29.3239 20.1606C29.4179 19.6902 29.465 19.314 29.4179 19.0788C30.4527 19.0788 31.4404 19.1258 32.4282 19.2199ZM33.9333 22.2772C33.8863 22.7005 33.8392 23.0768 33.8392 23.5471C32.7574 23.406 31.7226 23.406 30.6879 23.453C30.7349 23.0297 30.7349 22.6534 30.6879 22.2772C31.4875 22.2772 32.5693 22.2772 33.9333 22.2772ZM32.8985 19.1258L32.3341 18.2321C33.1337 17.7618 33.7922 17.3385 34.4036 17.0092L39.0131 14.046C39.5775 15.5511 40.0008 17.0092 40.3301 18.4203C40.6593 19.8313 40.8004 21.1483 40.8004 22.3712C41.553 22.6064 42.4466 22.7475 43.3403 22.7945C44.281 22.8416 45.1276 22.8416 45.9743 22.7475C45.7861 23.0768 45.6921 23.5471 45.6921 24.1115C45.0806 24.1115 44.234 24.0645 43.2462 23.9234C42.2585 23.7823 41.3648 23.5941 40.5652 23.3119C40.4241 24.2056 40.189 25.1463 39.8127 26.04C39.4364 26.9807 39.0601 27.8743 38.5427 28.815C38.2605 28.6269 37.8842 28.4858 37.3198 28.3917C37.7902 27.8273 38.2135 27.0747 38.6838 26.134C39.1072 25.1933 39.4364 24.1115 39.6245 22.9827C38.6368 22.5594 37.6491 21.9479 36.7554 21.1954C35.8147 20.4428 34.827 19.5491 33.7922 18.4673C33.4629 18.7495 33.1807 18.9377 32.8985 19.1258ZM36.1439 29.7557C35.7677 29.6617 35.3443 29.6617 34.827 29.7087C34.874 28.815 34.874 27.8743 34.7799 26.9336C34.6859 25.9459 34.5918 25.1463 34.4507 24.3937C34.874 24.5349 35.2973 24.5819 35.6266 24.5819C35.8147 26.5103 36.0028 28.2506 36.1439 29.7557ZM37.2257 20.3017C38.2135 21.1013 39.0601 21.6187 39.7186 21.8538C39.7186 21.1483 39.6245 20.3017 39.3894 19.1728C39.1542 18.091 38.8249 16.8681 38.3076 15.5511L35.0621 17.6207L34.6859 17.8559C35.3914 18.7495 36.238 19.5491 37.2257 20.3017Z"   fill="#394E28" ></path><path d="M52.1359 18.6555C51.5714 18.9847 51.0541 19.361 50.6307 19.7373C50.3956 19.2669 50.1604 18.8906 49.9252 18.5614C50.3015 18.4673 50.8189 18.2792 51.4774 17.9029L50.5367 13.3875C50.0193 13.4816 49.5489 13.6227 49.0786 13.7638L48.8904 12.7761C49.3608 12.729 49.8311 12.635 50.3485 12.5409L49.9252 10.5184C49.8311 10.0951 49.7371 9.62471 49.5489 9.06029L50.6778 8.82511C50.7248 9.29546 50.8189 9.81285 50.913 10.2832L51.3363 12.3057C51.7596 12.2116 52.2299 12.1176 52.6533 11.9765L52.8414 12.9642C52.371 13.0112 51.9477 13.1053 51.4774 13.1994L52.371 17.3855C52.7473 17.2444 53.1706 17.0092 53.641 16.727C53.688 17.1033 53.7351 17.4325 53.7821 17.7618C53.2647 17.997 52.7003 18.3262 52.1359 18.6555ZM61.3547 11.4591C61.2607 12.0235 61.2136 12.5879 61.2136 13.2464C61.2136 13.8579 61.1666 14.5164 61.0725 15.1749C60.9785 15.8334 60.8844 16.3507 60.7903 16.727C61.3077 17.3385 61.684 17.6677 62.0132 17.7618C62.2954 17.8559 62.3895 17.3855 62.2954 16.3978C62.7188 16.68 63.095 16.8211 63.4713 16.9152C63.4713 17.5737 63.3773 18.1381 63.2361 18.6555C63.095 19.1728 62.8128 19.361 62.4366 19.2199C62.0603 19.1258 61.684 18.8906 61.3077 18.6084C60.9314 18.3262 60.6022 17.997 60.32 17.6677C60.0848 18.091 59.8496 18.5614 59.5204 18.9847C59.1911 19.4551 58.8619 19.8784 58.4386 20.2547C58.1093 19.9254 57.733 19.6902 57.3568 19.5491C57.8741 19.1258 58.3445 18.7025 58.6737 18.2321C59.05 17.8088 59.3322 17.2914 59.5674 16.727C59.05 15.9274 58.5797 14.8926 58.1564 13.6697C57.733 12.4468 57.4508 11.365 57.2157 10.4713L54.2995 11.0828L54.7228 13.1053L57.1216 12.5879C57.2157 13.1053 57.3097 13.7168 57.4508 14.3753L57.8741 16.68C58.0153 17.3385 57.9212 17.8088 57.639 18.091C57.3097 18.3732 56.8864 18.6084 56.369 18.8436C56.1809 18.3732 55.9927 17.997 55.7105 17.6207C56.322 17.4796 56.6983 17.3385 56.8394 17.1974C56.9334 17.0563 56.9805 16.8211 56.8864 16.5389L56.369 13.6697L54.958 13.9519C55.052 14.5164 55.1931 15.1278 55.2872 15.8334C55.3813 16.5389 55.3343 17.2914 55.1931 18.1381C55.052 18.9847 54.6758 19.8784 54.1584 20.8191C53.8291 20.6309 53.4529 20.5369 52.9825 20.4428C53.5469 19.5491 53.9702 18.7025 54.1113 17.9499C54.2995 17.1974 54.3465 16.4448 54.2524 15.7863C54.1584 15.1278 54.0173 14.2342 53.7821 13.1994C53.5469 12.0705 53.3117 11.1298 53.1236 10.3302L57.0275 9.53064C56.8864 8.82511 56.6512 7.97849 56.369 7.03778C56.7923 7.03778 57.2157 6.99075 57.639 6.89667C57.639 7.55517 57.7801 8.35476 58.0153 9.29546L58.8619 9.10733C59.6615 8.91919 60.4611 8.73105 61.2607 8.5429L61.4958 9.62471C60.6963 9.76581 59.8967 9.90693 59.0971 10.048L58.2975 10.1891C58.4856 10.9887 58.7678 11.8824 59.05 12.7761C59.3322 13.6697 59.7085 14.6104 60.1789 15.5041C60.2729 14.8926 60.32 14.2342 60.32 13.4346C60.32 12.682 60.2729 11.8824 60.1789 11.0828C60.414 11.365 60.8374 11.4121 61.3547 11.4591ZM60.6492 8.07255C60.2729 8.35476 59.9907 8.63698 59.8496 8.87215C59.3793 8.35476 58.8619 7.83737 58.2975 7.36702C58.5797 7.17888 58.8148 6.89667 59.05 6.61447C59.8026 7.17888 60.32 7.64923 60.6492 8.07255Z"   fill="#394E28" ></path><path d="M80.2629 9.85989C81.1565 10.001 82.1443 10.1421 83.179 10.2832L82.9909 11.412C81.9561 11.2239 80.9684 11.0358 80.0747 10.8947L77.1585 10.4243L76.8293 12.3528L81.1565 13.0583C81.0154 13.7168 80.8743 14.4223 80.7803 15.1278L80.3569 17.9029C80.2629 18.5614 79.9807 18.9377 79.5103 19.0788C79.0399 19.2199 78.4285 19.2669 77.6289 19.2199C77.6289 18.7495 77.5348 18.2792 77.3467 17.8088C78.1463 17.9499 78.6166 17.997 78.8518 17.997C79.087 17.997 79.1811 17.8088 79.2751 17.4796L79.8395 13.8579L76.7352 13.3405L76.0297 17.7618C75.8886 18.7025 75.7475 19.5021 75.7005 20.2076L74.4305 20.0195C74.5716 19.361 74.7127 18.5614 74.8538 17.6207L75.5593 13.1994L72.408 12.682L71.5143 18.1851L70.2914 17.997C70.4325 17.3855 70.5736 16.68 70.7147 15.8804L71.044 13.8108C71.1851 12.9642 71.2792 12.1646 71.3732 11.5061L75.7475 12.2117L76.0767 10.2832L73.1606 9.81285C72.1728 9.67176 71.1851 9.53064 70.2444 9.38954L70.4325 8.26071C71.4203 8.44884 72.361 8.63698 73.3487 8.77808L80.2629 9.85989ZM77.723 8.82512C77.2997 8.96623 76.9234 9.06029 76.6412 9.20141C76.406 8.5429 76.0767 7.88442 75.6064 7.27296C75.9356 7.08483 76.2649 6.94371 76.5941 6.80261C76.9704 7.32 77.3467 8.02553 77.723 8.82512Z"   fill="#394E28" ></path><path d="M98.7947 21.5246L98.1832 22.5594C97.6658 22.3712 97.1485 22.3242 96.6781 22.3242C96.1607 22.3242 95.5963 22.2772 94.9848 22.2301L94.7497 22.6535L97.854 24.4408C98.2303 24.676 98.7477 24.9582 99.4061 25.2874L98.8417 26.2752C98.1832 25.8518 97.7129 25.5696 97.3366 25.3344L94.2323 23.5471L93.0564 25.5696C92.7742 26.04 92.4449 26.2281 92.0216 26.134C91.5983 26.04 90.9398 25.8048 90.0932 25.3815C90.1873 24.9582 90.2343 24.4878 90.2343 24.0175L91.5513 24.77C91.8805 24.9582 92.1627 24.8641 92.3509 24.5349L93.2445 22.9827L89.858 21.0072C89.3406 20.725 88.7292 20.3958 88.0707 20.0195L88.6351 19.0317C89.2936 19.4551 89.858 19.8313 90.3284 20.0665L93.7619 22.042C93.903 21.7598 94.0441 21.4776 94.1852 21.1013L96.49 21.2424L93.7619 19.6902C93.1505 19.314 92.3979 18.9377 91.5983 18.5144L92.1627 17.5737C92.8683 18.044 93.5267 18.4203 94.1852 18.7966L98.7947 21.5246ZM99.3121 18.8436L102.04 20.3958C101.852 20.678 101.617 21.0072 101.382 21.3835C101.146 21.7598 100.958 22.1831 100.77 22.5594L99.7354 21.9479L100.488 20.6309L91.9746 15.7393L91.175 17.1033L90.1402 16.4919C90.4224 16.1156 90.6576 15.7393 90.8928 15.316C91.128 14.9397 91.3161 14.5634 91.4572 14.2342L98.3243 18.1851C98.8417 17.8559 99.4061 17.5266 99.9706 17.1974C100.535 16.8681 101.052 16.4919 101.523 16.0685C101.899 16.68 102.181 17.1033 102.369 17.4326C101.241 17.9029 100.253 18.3262 99.3121 18.8436ZM94.9848 15.1278C94.4675 15.1749 94.0441 15.2689 93.7149 15.363C93.6679 14.4693 93.4797 13.6697 93.1975 12.8701C93.7149 12.8231 94.0912 12.7761 94.3734 12.682C94.6556 13.5286 94.8437 14.3282 94.9848 15.1278ZM98.1362 16.727C97.7129 16.7741 97.2896 16.8211 96.8192 16.8211C96.8662 16.1626 96.8192 15.316 96.6781 14.3753C97.1485 14.3282 97.5718 14.3282 97.901 14.2812C98.0421 15.4571 98.1362 16.2567 98.1362 16.727Z"   fill="#394E28" ></path><path d="M111.541 29.0032C110.789 29.2854 110.083 29.6146 109.331 29.8498C109.095 30.9786 108.813 31.7782 108.531 32.2486C108.249 32.7189 107.872 33.0482 107.449 33.2834C106.979 33.5185 106.555 33.5656 106.085 33.4245C105.662 33.2834 105.191 33.0011 104.815 32.4838C105.144 32.2016 105.427 31.8723 105.662 31.496C106.038 32.1075 106.367 32.3897 106.65 32.3427C106.932 32.2956 107.214 32.1075 107.449 31.8253C107.684 31.5431 107.92 31.1668 108.061 30.6964C108.202 30.2261 108.343 29.7087 108.437 29.1443C108.907 28.9561 109.472 28.721 110.083 28.4858C110.695 28.2506 111.259 27.9684 111.823 27.6862L110.836 26.4633L102.04 33.6596L101.335 32.813C101.899 32.3897 102.605 31.8253 103.404 31.2138L109.001 26.6514C109.66 26.134 110.224 25.6166 110.789 25.1463L113.376 28.2976C112.858 28.4858 112.247 28.721 111.541 29.0032ZM112.764 36.6229C113.187 37.1402 113.611 37.6106 113.987 38.0339L113.234 38.6454C112.905 38.175 112.67 37.8458 112.529 37.7047L111.917 36.9521L109.142 39.2098C108.813 39.492 108.719 39.7742 108.907 40.0564C109.095 40.3386 109.284 40.5268 109.425 40.7149C109.566 40.856 109.754 40.9501 109.989 40.903C110.177 40.856 110.553 40.6679 110.977 40.3386C111.024 40.7619 111.118 41.1382 111.259 41.5145C110.365 41.9849 109.754 42.126 109.425 41.9378C109.095 41.7497 108.625 41.2793 108.061 40.5268C107.496 39.7742 107.59 39.1157 108.343 38.5513L111.259 36.1525L110.412 35.1177C109.707 35.7292 108.954 36.2466 108.202 36.5758C107.402 36.9051 106.697 36.9991 105.944 36.858C105.239 36.7169 104.58 36.4817 103.969 36.1055C104.11 35.7762 104.157 35.3999 104.11 34.8826C105.521 35.8233 106.603 36.1055 107.449 35.7762C108.296 35.447 109.048 34.9296 109.801 34.2711C109.236 33.6126 108.813 33.1423 108.578 32.86L109.331 32.2486C109.613 32.6719 109.989 33.1423 110.412 33.6596L112.764 36.6229ZM113.987 34.5063C114.504 35.1177 114.881 35.5881 115.21 35.9173L114.457 36.5288C114.175 36.1055 113.799 35.6351 113.329 35.0237L112.294 33.7537C111.776 33.0952 111.306 32.5778 110.93 32.2016L111.682 31.5901C111.965 32.0134 112.388 32.5308 112.905 33.1893L113.987 34.5063ZM117.232 35.8703C116.95 36.1055 116.715 36.3406 116.433 36.6229L115.727 35.7292L116.762 34.8826L113.14 30.4613L112.153 31.2609L111.447 30.3672C111.729 30.179 112.012 29.9909 112.247 29.8028C112.482 29.6146 112.764 29.3794 113.046 29.0502L118.079 35.2118C117.75 35.447 117.515 35.6822 117.232 35.8703ZM115.445 31.9664C115.633 31.5431 115.821 30.9786 115.963 30.2261C116.292 30.4142 116.621 30.5083 116.95 30.5083C116.715 31.496 116.574 32.1075 116.48 32.3427C116.151 32.2016 115.821 32.0604 115.445 31.9664Z"   fill="#394E28" ></path><path d="M32.3812 55.6251L23.3975 55.6251C24.8556 48.5698 28.0069 42.173 32.3812 36.764L32.3812 55.6251Z"   fill="#394E28" ></path><path d="M32.3812 84.2694L27.0192 84.2694C24.103 78.343 22.4568 71.711 22.4568 64.6558C22.4568 62.6803 22.5979 60.7989 22.833 58.9175L32.3812 58.9175L32.3812 84.2694Z"   fill="#394E28" ></path><path d="M35.6736 33.1423C39.5305 29.3795 44.0459 26.2751 49.0316 24.1115L49.0316 55.625L35.6736 55.625L35.6736 33.1423Z"   fill="#394E28" ></path><rect x="35.673614501953125" y="58.917510986328125" width="13.35797119140625" height="25.3519287109375"   fill="#394E28" ></rect><path d="M28.8535 87.5619L49.0786 87.5619L49.0786 105.247C40.6123 101.578 33.557 95.3697 28.8535 87.5619Z"   fill="#394E28" ></path><path d="M52.324 67.8542L66.9049 67.8542L66.9049 108.916C66.8108 108.916 66.7638 108.916 66.6697 108.916C61.637 108.916 56.7924 108.069 52.324 106.517L52.324 67.8542Z"   fill="#394E28" ></path><path d="M66.7168 20.4428C71.044 20.4428 75.2301 21.0542 79.1811 22.2301L79.1811 42.8785L52.3711 42.8785L52.3711 22.8416C56.8394 21.2894 61.684 20.4428 66.7168 20.4428Z"   fill="#394E28" ></path><path d="M52.324 46.171L79.134 46.171L79.134 107.128C76.2649 107.975 73.2547 108.54 70.1974 108.775L70.1974 64.5617L52.324 64.5617L52.324 46.171Z"   fill="#394E28" ></path><path d="M96.6782 32.1545L82.4265 32.1545L82.4265 23.312C87.7415 25.3815 92.5861 28.3917 96.6782 32.1545Z"   fill="#394E28" ></path><path d="M105.192 42.8785L82.4265 42.8785L82.4265 35.447L99.8765 35.447C101.899 37.7517 103.686 40.2446 105.192 42.8785Z"   fill="#394E28" ></path><path d="M82.4265 78.6723L108.672 78.6723C104.486 91.2777 94.7967 101.343 82.4265 106.047L82.4265 78.6723Z"   fill="#394E28" ></path><path d="M110.93 64.7029C110.93 68.3716 110.459 71.9463 109.613 75.3798L82.4265 75.3798L82.4265 46.218L106.885 46.218C109.472 51.8152 110.93 58.0709 110.93 64.7029Z"   fill="#394E28" ></path><path d="M13.9434 83.705C14.2726 84.5987 14.8841 85.022 15.7778 84.975L15.6837 85.8687C15.1193 85.9157 14.6489 85.7746 14.1786 85.4454C13.7082 85.1161 13.379 84.6458 13.1908 84.0343C12.9557 83.4228 12.9557 82.8114 13.0968 82.2469C13.2379 81.6825 13.5671 81.1652 14.0375 80.6948C14.5078 80.2244 15.1193 79.8952 15.8248 79.613C16.5774 79.3778 17.2359 79.2367 17.8943 79.3308C18.5528 79.3778 19.1172 79.613 19.5876 79.9893C20.0579 80.3655 20.4342 80.8359 20.6224 81.4473C20.8575 82.1059 20.9046 82.6703 20.7164 83.1877C20.5283 83.705 20.2931 84.1284 19.8228 84.4576L19.2113 83.7991C19.9168 83.2817 20.152 82.5762 19.8228 81.6825C19.6817 81.2592 19.3994 80.93 19.0702 80.6948C18.6939 80.4596 18.2706 80.3185 17.7532 80.3185C17.2359 80.3185 16.7185 80.3655 16.107 80.6007C15.5426 80.7889 15.0722 81.0711 14.6489 81.4003C14.2726 81.7296 13.9904 82.1059 13.8964 82.5292C13.8023 82.8584 13.8023 83.2817 13.9434 83.705Z"   fill="#394E28" ></path><path d="M22.2215 85.5394L15.2603 88.7378L14.837 87.8441L21.7982 84.6457L22.2215 85.5394Z"   fill="#394E28" ></path><path d="M24.3381 91.3247L23.3504 89.5374L17.424 92.8769L16.9536 92.0302L22.88 88.6908L21.8923 86.9034L22.6449 86.4801L25.1377 90.9484L24.3381 91.3247Z"   fill="#394E28" ></path><path d="M23.6326 96.6397L21.0927 98.5211L20.5283 97.7215L23.0682 95.8871L25.1848 91.0895L25.8433 91.9832L24.056 95.793L28.2421 95.2757L28.8535 96.1223L23.6326 96.6397Z"   fill="#394E28" ></path><path d="M27.3014 105.764C26.878 105.341 26.5958 104.918 26.4077 104.448C26.2195 103.977 26.2195 103.507 26.3607 103.036C26.5018 102.566 26.7369 102.096 27.1603 101.672L30.5468 98.1448L31.2053 98.8033L27.8658 102.284C27.3954 102.754 27.2073 103.225 27.2073 103.742C27.2073 104.259 27.4425 104.73 27.8658 105.153C28.3361 105.576 28.8065 105.812 29.3239 105.764C29.8413 105.764 30.3116 105.482 30.782 105.012L34.1215 101.531L34.827 102.19L31.4405 105.717C31.0171 106.141 30.5938 106.423 30.1235 106.564C29.6531 106.705 29.1828 106.705 28.7124 106.564C28.195 106.423 27.7247 106.141 27.3014 105.764Z"   fill="#394E28" ></path><path d="M40.3301 106.235L35.8617 112.443L35.2033 111.973L35.4384 104.636L31.8638 109.621L31.1582 109.104L35.6266 102.895L36.4732 103.507L36.238 110.468L39.6246 105.765L40.3301 106.235Z"   fill="#394E28" ></path><path d="M42.3056 107.364L38.4487 113.996L37.6021 113.478L41.4589 106.846L42.3056 107.364Z"   fill="#394E28" ></path><path d="M48.8435 110.562L43.1522 116.347L42.1174 115.877L42.917 107.787L43.8577 108.257L43.0111 115.36L47.9027 110.139L48.8435 110.562Z"   fill="#394E28" ></path><path d="M50.0193 111.832L49.2667 114.09L52.324 115.077L52.0418 115.877L48.9845 114.889L48.1379 117.476L51.3833 118.558L51.1011 119.358L46.915 117.994L49.3138 110.703L53.4999 112.067L53.2177 112.867L50.0193 111.832Z"   fill="#394E28" ></path><path d="M55.7576 117.194L54.6288 116.959L54.0173 120.063L53.0296 119.875L54.5347 112.396L57.3568 112.961C57.7801 113.055 58.1564 113.196 58.4386 113.478C58.7208 113.713 58.909 114.043 59.0501 114.419C59.1441 114.795 59.1441 115.171 59.0971 115.642C58.956 116.253 58.7208 116.724 58.2975 117.053C57.9212 117.382 57.4038 117.523 56.8394 117.476L58.4856 121.051L57.3098 120.816L55.7576 117.194ZM54.7699 116.159L56.4161 116.488C56.8394 116.583 57.2157 116.535 57.4979 116.347C57.7801 116.159 57.9683 115.83 58.0623 115.36C58.1564 114.936 58.1094 114.56 57.9212 114.278C57.7331 113.996 57.4509 113.807 56.9805 113.713L55.3343 113.384L54.7699 116.159Z"   fill="#394E28" ></path><path d="M60.2259 115.454C60.273 115.03 60.367 114.701 60.6022 114.372C60.8374 114.09 61.1196 113.854 61.4959 113.713C61.8722 113.572 62.2955 113.525 62.8129 113.572C63.4243 113.619 63.9417 113.807 64.318 114.09C64.6943 114.372 64.9765 114.748 65.0705 115.266L64.2239 115.595C64.0358 114.889 63.5654 114.513 62.7188 114.466C62.2484 114.419 61.8722 114.513 61.59 114.701C61.3077 114.889 61.1666 115.171 61.1666 115.548C61.1666 115.783 61.1666 115.971 61.2607 116.159C61.3548 116.3 61.4959 116.488 61.7311 116.583C61.9662 116.724 62.2484 116.818 62.6718 116.959C63.5184 117.194 64.0828 117.523 64.4121 117.899C64.7413 118.276 64.8824 118.793 64.8354 119.452C64.7883 119.875 64.6472 120.251 64.4121 120.58C64.1769 120.91 63.8476 121.145 63.4243 121.286C63.001 121.427 62.5777 121.521 62.0603 121.474C61.4018 121.427 60.8374 121.239 60.4141 120.91C59.9908 120.58 59.7085 120.157 59.5674 119.593L60.4141 119.264C60.5081 119.687 60.6963 119.969 61.0255 120.204C61.3077 120.439 61.684 120.58 62.1544 120.628C62.6718 120.675 63.048 120.58 63.3773 120.345C63.7065 120.11 63.8476 119.828 63.8947 119.358C63.8947 119.075 63.8947 118.887 63.8006 118.699C63.7065 118.511 63.5184 118.323 63.2832 118.182C63.048 118.041 62.6718 117.899 62.2484 117.758C61.4959 117.523 60.9315 117.241 60.6022 116.865C60.32 116.488 60.1789 116.018 60.2259 115.454Z"   fill="#394E28" ></path><path d="M67.3753 113.807L67.4223 121.474L66.4345 121.474L66.3875 113.807L67.3753 113.807Z"   fill="#394E28" ></path><path d="M73.4898 114.278L71.4673 114.466L72.0317 121.239L71.044 121.333L70.4796 114.56L68.41 114.748L68.316 113.902L73.3958 113.478L73.4898 114.278Z"   fill="#394E28" ></path><path d="M78.0052 117.1L78.6637 120.204L77.723 120.392L77.0645 117.335L73.5839 113.478L74.6657 113.243L77.3937 116.441L78.6166 112.396L79.6514 112.161L78.0052 117.1Z"   fill="#394E28" ></path><path d="M87.9767 117.429C87.3652 117.664 86.8008 117.711 86.1893 117.617C85.6249 117.476 85.0605 117.194 84.5901 116.771C84.1198 116.3 83.7435 115.736 83.4613 115.03C83.1791 114.325 83.038 113.619 83.085 112.961C83.1321 112.302 83.3202 111.738 83.6494 111.221C83.9787 110.703 84.449 110.374 85.0605 110.092C85.672 109.857 86.2364 109.809 86.8478 109.904C87.4593 109.998 87.9767 110.327 88.447 110.75C88.9174 111.221 89.2936 111.785 89.5758 112.49C89.8581 113.196 89.9992 113.854 89.9522 114.513C89.9051 115.171 89.717 115.736 89.3877 116.253C89.0585 116.818 88.5881 117.194 87.9767 117.429ZM87.6945 116.677C88.1178 116.488 88.447 116.253 88.6822 115.877C88.9174 115.501 89.0115 115.077 89.0115 114.56C89.0115 114.043 88.9174 113.525 88.6822 112.961C88.447 112.396 88.1648 111.926 87.7886 111.55C87.4122 111.173 87.036 110.938 86.6127 110.844C86.1893 110.75 85.766 110.75 85.3427 110.938C84.9194 111.126 84.5901 111.362 84.355 111.738C84.1198 112.114 84.0257 112.538 84.0257 113.055C84.0257 113.572 84.1198 114.09 84.355 114.654C84.5901 115.218 84.8724 115.689 85.2486 116.065C85.6249 116.441 86.0012 116.677 86.4245 116.771C86.8478 116.865 87.2711 116.818 87.6945 116.677Z"   fill="#394E28" ></path><path d="M90.1873 108.822L91.4102 110.985L94.1383 109.48L94.5616 110.233L91.8336 111.738L93.5268 114.795L92.6802 115.266L88.9644 108.587L92.7272 106.47L93.1505 107.223L90.1873 108.822Z"   fill="#394E28" ></path><path d="M102.51 98.7092L105.944 105.859L105.191 106.517L99.7354 102.848L102.605 108.822L101.852 109.48L95.3141 105.012L96.0667 104.353L101.382 108.116L98.5125 102.143L99.2651 101.484L104.768 105.247L101.758 99.3677L102.51 98.7092Z"   fill="#394E28" ></path><path d="M110.553 100.92C110.177 101.39 109.754 101.719 109.284 101.908C108.813 102.096 108.343 102.143 107.872 102.049C107.402 101.955 106.932 101.719 106.461 101.343L102.699 98.2389L103.263 97.5333L107.026 100.638C107.543 101.061 108.061 101.249 108.531 101.202C109.048 101.155 109.472 100.92 109.895 100.45C110.271 99.9792 110.459 99.4618 110.412 98.9914C110.365 98.5211 110.083 98.0037 109.566 97.5804L105.85 94.5231L106.461 93.7705L110.224 96.8748C110.695 97.2511 110.977 97.6744 111.165 98.0978C111.353 98.5681 111.4 99.0385 111.259 99.5088C111.212 99.9792 110.93 100.45 110.553 100.92Z"   fill="#394E28" ></path><path d="M110.083 87.8911L116.621 91.8891L116.104 92.7358L113.046 90.8544L111.024 94.1468L114.081 96.0282L113.564 96.8748L107.026 92.8769L107.543 92.0302L110.271 93.7235L112.294 90.431L109.566 88.7378L110.083 87.8911Z"   fill="#394E28" ></path><path d="M117.232 85.2572L116.01 87.9852L117.75 89.5373L117.374 90.431L111.447 84.8809L111.918 83.8461L120.008 84.4576L119.584 85.4453L117.232 85.2572ZM116.339 85.1631L112.482 84.7868L115.398 87.3737L116.339 85.1631Z"   fill="#394E28" ></path><path d="M114.74 75.3328L122.077 77.4493L121.842 78.2489L114.834 80.5066L120.713 82.1999L120.478 83.0465L113.14 80.9299L113.423 79.8952L120.055 77.7786L114.457 76.1794L114.74 75.3328Z"   fill="#394E28" ></path></g></g><defs><clipPath id="clip-path-0_1"><path d="M0 140L539 140L539 0L0 0L0 140Z" fill="white"/></clipPath><clipPath id="clip-path-50l6YDZmFNKTr86l4fE3U"><path d="M-75 267.989L205 267.989L205 -128L-75 -128L-75 267.989Z" fill="white"/></clipPath></defs></svg>