<svg xmlns="http://www.w3.org/2000/svg" xmlns:xlink="http://www.w3.org/1999/xlink" width="261.4000244140625" height="261.4000244140625" viewBox="0 0 261.4000244140625 261.4000244140625" fill="none"><path d="M130.7 0C58.5698 0 0 58.4736 0 130.7C0 202.83 58.4736 261.4 130.7 261.4C202.926 261.4 261.4 202.926 261.4 130.7C261.304 58.4736 202.83 0 130.7 0ZM130.7 256.399C61.2626 256.399 5.00104 200.137 5.00104 130.7C5.00104 61.2626 61.2626 5.00103 130.7 5.00103C200.137 5.00103 256.399 61.2626 256.399 130.7C256.399 200.137 200.137 256.399 130.7 256.399Z"   fill="#394E28" ></path><path d="M34.0455 65.6866C32.9876 67.0331 31.9297 68.3795 30.7756 69.8221C29.7177 71.1685 28.7559 72.6111 27.698 74.0537L25.9669 72.7073C27.121 71.2647 28.2751 69.8221 29.2368 68.4757C30.2947 67.0331 31.2564 65.6866 32.2182 64.3402L34.0455 65.6866ZM38.3733 65.4943C37.2192 64.7249 36.1613 64.0517 35.1996 63.3784C34.2378 62.7052 33.0837 61.9358 31.6411 60.8779L33.2761 58.6659C34.1416 59.6277 35.1034 60.4932 36.2575 61.3588C37.4116 62.2244 38.5656 62.9937 39.7197 63.7632L41.8355 60.9741C42.7011 59.82 43.5667 58.5698 44.4322 57.3195L46.0672 58.5698C45.1054 59.7238 44.2399 60.8779 43.3743 62.032L41.2585 64.821C43.8552 66.456 46.1634 67.6101 48.183 68.091C50.2027 68.5718 51.9338 68.8604 53.3764 68.8604C54.819 68.8604 55.4922 68.4757 55.396 67.8986C55.2037 67.2254 54.6266 66.456 53.5687 65.5904C54.6266 65.4943 55.4922 65.2058 56.3578 64.7249C57.8965 66.7445 58.6659 68.091 58.6659 68.9565C58.6659 69.7259 57.9927 70.303 56.6463 70.6877C55.2999 71.0723 53.8573 71.2647 52.5108 71.1685C51.1644 71.0723 49.9141 70.9762 48.6639 70.6877C47.5098 70.3991 46.2595 69.9183 44.9131 69.3412C43.5667 68.7642 41.9317 67.8024 40.1044 66.5522L36.8345 70.9762L40.3929 73.5729C41.3547 72.2264 42.2202 71.0723 42.8935 70.0144L44.6246 71.3609C43.759 72.4188 42.7973 73.5729 41.9317 74.7269L46.1634 77.9007C47.2213 75.7849 48.0868 74.2461 48.6639 73.092C49.0486 73.4767 49.6256 73.9576 50.395 74.5346C49.0486 76.8428 47.7983 79.3433 46.4519 81.94C45.1054 84.6328 44.2399 86.6525 43.759 88.0951C42.9896 87.6142 42.1241 87.2295 40.97 86.941C41.4508 86.2678 41.9317 85.4984 42.4126 84.5367L37.5077 80.8821C36.546 80.1127 35.4881 79.4395 34.5264 78.8624L36.0651 76.8428C36.9307 77.6122 37.8924 78.2854 38.758 79.0548L43.5667 82.7094L45.0093 80.0165L35.3919 72.8035L33.5646 75.2078C32.6029 76.5542 31.6411 77.8045 30.7756 79.2471L29.1406 77.9968C30.1985 76.7466 31.1603 75.4963 32.122 74.1499L38.3733 65.4943ZM41.3547 56.4539C41.3547 57.3195 41.4508 58.1851 41.547 58.9545C40.6815 58.9545 39.2389 59.1468 37.123 59.6277C37.123 58.9545 37.0269 58.1851 36.7383 57.4157C38.6618 56.9348 40.2006 56.6463 41.3547 56.4539Z"   fill="#394E28" ></path><path d="M61.2626 37.3154C61.0703 38.2771 61.0703 39.0465 61.0703 39.8159C58.9545 39.4312 56.9348 39.2388 54.9152 39.2388C55.1075 38.2771 55.2037 37.5077 55.1075 37.0268C57.2233 37.0268 59.243 37.123 61.2626 37.3154ZM64.3402 43.6628C64.244 44.5284 64.1478 45.2978 64.1478 46.2595C61.9358 45.971 59.82 45.971 57.7042 46.0672C57.8004 45.2016 57.8004 44.4322 57.7042 43.6628C59.3391 43.5667 61.5511 43.5667 64.3402 43.6628ZM62.2243 37.123L61.0703 35.2957C62.7052 34.334 64.0517 33.4684 65.3019 32.7952L74.7269 26.7363C75.881 29.8138 76.7466 32.7952 77.4198 35.6804C78.093 38.5656 78.3815 41.2585 78.3815 43.759C79.9203 44.2399 81.7476 44.5284 83.5749 44.6246C85.4984 44.7207 87.2295 44.7207 88.9606 44.5284C88.5759 45.2016 88.3836 46.1633 88.3836 47.3174C87.1333 47.3174 85.4022 47.2213 83.3826 46.9327C81.3629 46.6442 79.5356 46.2595 77.9007 45.6825C77.6121 47.5098 77.1313 49.4333 76.3619 51.2606C75.5925 53.184 74.8231 55.0113 73.7652 56.9348C73.1882 56.5501 72.4188 56.2616 71.2647 56.0692C72.2264 54.9151 73.092 53.3764 74.0537 51.4529C74.9193 49.5294 75.5925 47.3174 75.9772 45.0093C73.9575 44.1437 71.9379 42.8934 70.1106 41.3547C68.1871 39.8159 66.1675 37.9886 64.0517 35.7766C63.3784 36.3536 62.8014 36.7383 62.2243 37.123ZM68.8603 58.8583C68.091 58.6659 67.2254 58.6659 66.1675 58.7621C66.2637 56.9348 66.2637 55.0113 66.0713 53.0879C65.879 51.0682 65.6866 49.4333 65.3981 47.8945C66.2637 48.183 67.1292 48.2792 67.8024 48.2792C68.1871 52.2223 68.5718 55.7807 68.8603 58.8583ZM71.0723 39.5274C73.092 41.1623 74.8231 42.2202 76.1695 42.7011C76.1695 41.2585 75.9772 39.5274 75.4963 37.2192C75.0155 35.0072 74.3422 32.5067 73.2843 29.8138L66.6483 34.0454L65.879 34.5263C67.3216 36.3536 69.0527 37.9886 71.0723 39.5274Z"   fill="#394E28" ></path><path d="M101.559 36.1613C100.405 36.8345 99.3474 37.6039 98.4818 38.3733C98.0009 37.4115 97.5201 36.6422 97.0392 35.9689C97.8086 35.7766 98.8665 35.3919 100.213 34.6225L98.2894 25.3898C97.2315 25.5822 96.2698 25.8707 95.308 26.1592L94.9234 24.1396C95.8851 24.0434 96.8468 23.8511 97.9047 23.6587L97.0392 19.5233C96.8468 18.6577 96.6545 17.6959 96.2698 16.5419L98.578 16.061C98.6741 17.0227 98.8665 18.0807 99.0588 19.0424L99.9244 23.1778C100.79 22.9855 101.752 22.7931 102.617 22.5046L103.002 24.5243C102.04 24.6204 101.175 24.8128 100.213 25.0051L102.04 33.5646C102.81 33.2761 103.675 32.7952 104.637 32.2182C104.733 32.9876 104.829 33.6608 104.925 34.334C103.868 34.8149 102.713 35.4881 101.559 36.1613ZM120.409 21.4467C120.217 22.6008 120.121 23.7549 120.121 25.1013C120.121 26.3516 120.025 27.698 119.832 29.0444C119.64 30.3909 119.448 31.4488 119.255 32.2182C120.313 33.4684 121.083 34.1416 121.756 34.334C122.333 34.5263 122.525 33.5646 122.333 31.545C123.198 32.122 123.968 32.4105 124.737 32.6029C124.737 33.9493 124.545 35.1034 124.256 36.1613C123.968 37.2192 123.391 37.6039 122.621 37.3154C121.852 37.123 121.083 36.6422 120.313 36.0651C119.544 35.4881 118.871 34.8149 118.294 34.1416C117.813 35.0072 117.332 35.9689 116.659 36.8345C115.985 37.7962 115.312 38.6618 114.447 39.4312C113.773 38.758 113.004 38.2771 112.235 37.9886C113.293 37.123 114.254 36.2575 114.927 35.2957C115.697 34.4302 116.274 33.3723 116.755 32.2182C115.697 30.5832 114.735 28.4674 113.87 25.9669C113.004 23.4664 112.427 21.2544 111.946 19.4271L105.983 20.6773L106.849 24.8128L111.754 23.7549C111.946 24.8128 112.138 26.0631 112.427 27.4095L113.293 32.122C113.581 33.4684 113.389 34.4302 112.812 35.0072C112.138 35.5842 111.273 36.0651 110.215 36.546C109.83 35.5842 109.446 34.8149 108.869 34.0455C110.119 33.7569 110.888 33.4684 111.177 33.1799C111.369 32.8914 111.465 32.4105 111.273 31.8335L110.215 25.9669L107.33 26.5439C107.522 27.698 107.811 28.9483 108.003 30.3909C108.195 31.8335 108.099 33.3723 107.811 35.1034C107.522 36.8345 106.753 38.6618 105.695 40.5853C105.022 40.2006 104.252 40.0082 103.29 39.8159C104.445 37.9886 105.31 36.2575 105.599 34.7187C105.983 33.1799 106.079 31.6411 105.887 30.2947C105.695 28.9483 105.406 27.121 104.925 25.0051C104.445 22.697 103.964 20.7735 103.579 19.1385L111.561 17.5036C111.273 16.061 110.792 14.3299 110.215 12.4064C111.081 12.4064 111.946 12.3102 112.812 12.1179C112.812 13.4643 113.1 15.0993 113.581 17.0227L115.312 16.6381C116.947 16.2533 118.582 15.8686 120.217 15.484L120.698 17.6959C119.063 17.9845 117.428 18.273 115.793 18.5615L114.158 18.85C114.543 20.485 115.12 22.3123 115.697 24.1396C116.274 25.9669 117.043 27.8904 118.005 29.7177C118.197 28.4674 118.294 27.121 118.294 25.486C118.294 23.9472 118.197 22.3123 118.005 20.6773C118.486 21.2544 119.351 21.3505 120.409 21.4467ZM118.967 14.5222C118.197 15.0993 117.62 15.6763 117.332 16.1572C116.37 15.0993 115.312 14.0414 114.158 13.0796C114.735 12.6949 115.216 12.1179 115.697 11.5408C117.236 12.6949 118.294 13.6567 118.967 14.5222Z"   fill="#394E28" ></path><path d="M159.071 18.273C160.899 18.5615 162.918 18.85 165.034 19.1385L164.649 21.4467C162.533 21.062 160.514 20.6773 158.687 20.3888L152.724 19.4271L152.051 23.3702L160.899 24.8128C160.61 26.1592 160.321 27.6018 160.129 29.0444L159.264 34.7187C159.071 36.0651 158.494 36.8345 157.532 37.123C156.571 37.4115 155.32 37.5077 153.685 37.4115C153.685 36.4498 153.493 35.4881 153.108 34.5263C154.743 34.8148 155.705 34.911 156.186 34.911C156.667 34.911 156.859 34.5263 157.052 33.8531L158.206 26.4477L151.858 25.3898L150.416 34.4301C150.127 36.3536 149.839 37.9886 149.742 39.4312L147.146 39.0465C147.434 37.7001 147.723 36.0651 148.011 34.1416L149.454 25.1013L143.01 24.0434L141.183 35.2957L138.682 34.911C138.971 33.6608 139.259 32.2182 139.548 30.5832L140.221 26.3516C140.51 24.6204 140.702 22.9855 140.894 21.639L149.839 23.0817L150.512 19.1385L144.549 18.1768C142.529 17.8883 140.51 17.5998 138.586 17.3112L138.971 15.0031C140.991 15.3877 142.914 15.7724 144.934 16.061L159.071 18.273ZM153.878 16.061C153.012 16.3495 152.243 16.5418 151.666 16.8304C151.185 15.4839 150.512 14.1375 149.55 12.8872C150.223 12.5025 150.896 12.214 151.57 11.9255C152.339 12.9834 153.108 14.426 153.878 16.061Z"   fill="#394E28" ></path><path d="M196.964 42.0279L195.713 44.1437C194.655 43.759 193.598 43.6629 192.636 43.6629C191.578 43.6629 190.424 43.5667 189.174 43.4705L188.693 44.3361L195.04 47.9907C195.809 48.4715 196.867 49.0486 198.214 49.7218L197.06 51.7415C195.713 50.8759 194.752 50.2988 193.982 49.818L187.635 46.1634L185.23 50.2988C184.653 51.2606 183.98 51.6453 183.115 51.4529C182.249 51.2606 180.903 50.7797 179.171 49.9142C179.364 49.0486 179.46 48.0869 179.46 47.1251L182.153 48.6639C182.826 49.0486 183.403 48.8562 183.788 48.183L185.615 45.0093L178.691 40.97C177.633 40.393 176.382 39.7197 175.036 38.9504L176.19 36.9307C177.536 37.7963 178.691 38.5657 179.652 39.0465L186.673 43.0858C186.962 42.5088 187.25 41.9317 187.539 41.1623L192.251 41.4509L186.673 38.2771C185.423 37.5078 183.884 36.7384 182.249 35.8728L183.403 33.9493C184.846 34.9111 186.192 35.6805 187.539 36.4498L196.964 42.0279ZM198.021 36.6422L203.6 39.8159C203.215 40.393 202.734 41.0662 202.253 41.8356C201.772 42.605 201.388 43.4705 201.003 44.2399L198.887 42.9896L200.426 40.2968L183.018 30.1986L181.383 32.9876L179.268 31.7373C179.845 30.968 180.326 30.1986 180.806 29.333C181.287 28.5636 181.672 27.7942 181.96 27.121L196.002 35.1996C197.06 34.5264 198.214 33.8532 199.368 33.1799C200.522 32.5067 201.58 31.7373 202.542 30.8718C203.311 32.122 203.888 32.9876 204.273 33.6608C201.965 34.6225 199.945 35.4881 198.021 36.6422ZM189.174 28.9483C188.116 29.0445 187.25 29.2368 186.577 29.4292C186.481 27.6019 186.096 25.9669 185.519 24.332C186.577 24.2358 187.346 24.1396 187.923 23.9473C188.5 25.6784 188.885 27.3133 189.174 28.9483ZM195.617 32.2182C194.752 32.3144 193.886 32.4106 192.924 32.4106C193.02 31.0641 192.924 29.333 192.636 27.4095C193.598 27.3133 194.463 27.3133 195.136 27.2172C195.425 29.6215 195.617 31.2565 195.617 32.2182Z"   fill="#394E28" ></path><path d="M223.027 57.3195C221.488 57.8965 220.045 58.5697 218.507 59.0506C218.026 61.3588 217.449 62.9937 216.872 63.9555C216.295 64.9172 215.525 65.5904 214.66 66.0713C213.698 66.5521 212.832 66.6483 211.871 66.3598C211.005 66.0713 210.043 65.4942 209.274 64.4363C209.947 63.8593 210.524 63.1861 211.005 62.4167C211.774 63.6669 212.448 64.244 213.025 64.1478C213.602 64.0516 214.179 63.6669 214.66 63.0899C215.14 62.5128 215.621 61.7435 215.91 60.7817C216.198 59.82 216.487 58.7621 216.679 57.608C217.641 57.2233 218.795 56.7424 220.045 56.2616C221.296 55.7807 222.45 55.2036 223.604 54.6266L221.584 52.1261L203.6 66.8407L202.157 65.1095C203.311 64.244 204.754 63.0899 206.389 61.8396L217.833 52.5108C219.18 51.4529 220.334 50.395 221.488 49.4332L226.777 55.8769C225.72 56.2616 224.469 56.7424 223.027 57.3195ZM225.527 72.8996C226.393 73.9575 227.258 74.9193 228.028 75.7848L226.489 77.0351C225.816 76.0733 225.335 75.4001 225.046 75.1116L223.796 73.5728L218.122 78.1891C217.449 78.7662 217.256 79.3432 217.641 79.9203C218.026 80.4973 218.41 80.882 218.699 81.2667C218.987 81.5552 219.372 81.7476 219.853 81.6514C220.238 81.5552 221.007 81.1705 221.873 80.4973C221.969 81.3629 222.161 82.1323 222.45 82.9017C220.622 83.8634 219.372 84.1519 218.699 83.7672C218.026 83.3825 217.064 82.4208 215.91 80.882C214.756 79.3432 214.948 77.9968 216.487 76.8427L222.45 71.9379L220.719 69.822C219.276 71.0723 217.737 72.1302 216.198 72.8034C214.563 73.4766 213.121 73.669 211.582 73.3805C210.139 73.0919 208.793 72.6111 207.543 71.8417C207.831 71.1685 207.927 70.3991 207.831 69.3412C210.716 71.2646 212.928 71.8417 214.66 71.1685C216.391 70.4953 217.929 69.4373 219.468 68.0909C218.314 66.7445 217.449 65.7828 216.968 65.2057L218.507 63.9555C219.084 64.821 219.853 65.7828 220.719 66.8407L225.527 72.8996ZM228.028 68.5718C229.086 69.822 229.855 70.7838 230.528 71.457L228.989 72.7073C228.412 71.8417 227.643 70.88 226.681 69.6297L224.565 67.033C223.508 65.6866 222.546 64.6287 221.776 63.8593L223.315 62.609C223.892 63.4746 224.758 64.5325 225.816 65.8789L228.028 68.5718ZM234.664 71.457C234.087 71.9379 233.606 72.4187 233.029 72.9958L231.586 71.1685L233.702 69.4373L226.297 60.397L224.277 62.032L222.834 60.2047C223.411 59.82 223.988 59.4353 224.469 59.0506C224.95 58.6659 225.527 58.185 226.104 57.5118L236.395 70.1106C235.722 70.5914 235.241 70.9761 234.664 71.457ZM231.009 63.4746C231.394 62.609 231.778 61.4549 232.067 59.9162C232.74 60.3008 233.413 60.4932 234.087 60.4932C233.606 62.5128 233.317 63.7631 233.125 64.244C232.452 63.8593 231.778 63.5708 231.009 63.4746Z"   fill="#394E28" ></path><path d="M60.6856 112.331L42.3164 112.331C45.2978 97.9048 51.7414 84.8252 60.6856 73.7652L60.6856 112.331Z"   fill="#394E28" ></path><path d="M60.6856 170.901L49.7218 170.901C43.759 158.783 40.3929 145.222 40.3929 130.796C40.3929 126.757 40.6815 122.91 41.1623 119.063L60.6856 119.063L60.6856 170.901Z"   fill="#394E28" ></path><path d="M67.4177 66.456C75.304 58.7621 84.5366 52.4146 94.731 47.9907L94.731 112.427L67.4177 112.427L67.4177 66.456Z"   fill="#394E28" ></path><rect x="67.417724609375" y="119.06301879882812" width="27.313323974609375" height="51.837615966796875"   fill="#394E28" ></rect><path d="M53.4725 177.633L94.8272 177.633L94.8272 213.794C77.516 206.293 63.0899 193.598 53.4725 177.633Z"   fill="#394E28" ></path><path d="M101.463 137.336L131.277 137.336L131.277 221.296C131.085 221.296 130.989 221.296 130.796 221.296C120.506 221.296 110.6 219.564 101.463 216.391L101.463 137.336Z"   fill="#394E28" ></path><path d="M130.892 40.3929C139.74 40.3929 148.3 41.6432 156.378 44.0476L156.378 86.2678L101.559 86.2678L101.559 45.2978C110.696 42.1241 120.602 40.3929 130.892 40.3929Z"   fill="#394E28" ></path><path d="M101.463 92.9999L156.282 92.9999L156.282 217.641C150.416 219.372 144.26 220.526 138.009 221.007L138.009 130.604L101.463 130.604L101.463 92.9999Z"   fill="#394E28" ></path><path d="M192.155 64.4364L163.014 64.4364L163.014 46.3557C173.882 50.4912 183.788 56.6463 192.155 64.4364Z"   fill="#394E28" ></path><path d="M209.562 86.2678L163.014 86.2678L163.014 71.0724L198.695 71.0724C202.83 75.7849 206.485 80.8821 209.562 86.2678Z"   fill="#394E28" ></path><path d="M163.014 159.456L216.679 159.456C208.12 185.23 188.308 205.812 163.014 215.429L163.014 159.456Z"   fill="#394E28" ></path><path d="M221.296 130.892C221.296 138.394 220.334 145.703 218.603 152.724L163.014 152.724L163.014 93.0961L213.025 93.0961C218.314 104.541 221.296 117.332 221.296 130.892Z"   fill="#394E28" ></path><path d="M23.0862 169.073C23.7595 170.901 25.0097 171.766 26.837 171.67L26.6447 173.497C25.4906 173.594 24.5288 173.305 23.5671 172.632C22.6054 171.958 21.9321 170.997 21.5475 169.747C21.0666 168.496 21.0666 167.246 21.3551 166.092C21.6436 164.938 22.3168 163.88 23.2786 162.918C24.2403 161.956 25.4906 161.283 26.9332 160.706C28.472 160.225 29.8184 159.937 31.1648 160.129C32.5112 160.225 33.6653 160.706 34.627 161.476C35.5888 162.245 36.3582 163.207 36.7429 164.457C37.2237 165.803 37.3199 166.958 36.9352 168.015C36.5505 169.073 36.0696 169.939 35.1079 170.612L33.8576 169.266C35.3003 168.208 35.7811 166.765 35.1079 164.938C34.8194 164.072 34.2423 163.399 33.5691 162.918C32.7997 162.437 31.9342 162.149 30.8763 162.149C29.8184 162.149 28.7605 162.245 27.5102 162.726C26.3561 163.111 25.3944 163.688 24.5288 164.361C23.7595 165.034 23.1824 165.803 22.9901 166.669C22.7977 167.342 22.7977 168.208 23.0862 169.073Z"   fill="#394E28" ></path><path d="M40.0128 172.92L25.7791 179.46L24.9135 177.633L39.1472 171.093L40.0128 172.92Z"   fill="#394E28" ></path><path d="M44.3406 184.653L42.321 180.999L30.2031 187.827L29.2413 186.096L41.3592 179.268L39.3396 175.613L40.8783 174.748L45.9755 183.884L44.3406 184.653Z"   fill="#394E28" ></path><path d="M42.898 195.521L37.7046 199.368L36.5506 197.733L41.7439 193.982L46.0717 184.173L47.4182 186L43.7636 193.79L52.323 192.732L53.5733 194.463L42.898 195.521Z"   fill="#394E28" ></path><path d="M50.3996 214.179C49.534 213.313 48.957 212.448 48.5723 211.486C48.1876 210.524 48.1876 209.562 48.4761 208.601C48.7646 207.639 49.2455 206.677 50.111 205.812L57.0356 198.599L58.382 199.945L51.5537 207.062C50.5919 208.024 50.2072 208.985 50.2072 210.043C50.2072 211.101 50.6881 212.063 51.5537 212.929C52.5154 213.794 53.4771 214.275 54.535 214.179C55.5929 214.179 56.5547 213.602 57.5164 212.64L64.3448 205.523L65.7874 206.87L58.8629 214.083C57.9972 214.948 57.1317 215.525 56.17 215.814C55.2083 216.102 54.2465 216.102 53.2848 215.814C52.2269 215.525 51.2651 214.948 50.3996 214.179Z"   fill="#394E28" ></path><path d="M77.0397 215.14L67.9032 227.835L66.5567 226.874L67.0376 211.871L59.7284 222.065L58.2858 221.007L67.4223 208.312L69.1534 209.562L68.6726 223.796L75.5971 214.179L77.0397 215.14Z"   fill="#394E28" ></path><path d="M81.079 217.449L73.1927 231.009L71.4616 229.951L79.3479 216.391L81.079 217.449Z"   fill="#394E28" ></path><path d="M94.4471 223.988L82.8101 235.818L80.6942 234.856L82.3292 218.314L84.2527 219.276L82.5215 233.798L92.5236 223.123L94.4471 223.988Z"   fill="#394E28" ></path><path d="M96.8514 226.585L95.3127 231.201L101.564 233.221L100.987 234.856L94.7356 232.836L93.0045 238.126L99.6405 240.338L99.0634 241.973L90.504 239.184L95.4088 224.277L103.968 227.066L103.391 228.701L96.8514 226.585Z"   fill="#394E28" ></path><path d="M108.585 237.549L106.276 237.068L105.026 243.416L103.007 243.031L106.084 227.739L111.855 228.893C112.72 229.086 113.489 229.374 114.067 229.951C114.644 230.432 115.028 231.105 115.317 231.875C115.509 232.644 115.509 233.414 115.413 234.375C115.124 235.626 114.644 236.587 113.778 237.26C113.009 237.934 111.951 238.222 110.797 238.126L114.163 245.435L111.758 244.954L108.585 237.549ZM106.565 235.433L109.931 236.106C110.797 236.299 111.566 236.203 112.143 235.818C112.72 235.433 113.105 234.76 113.297 233.798C113.489 232.933 113.393 232.163 113.009 231.586C112.624 231.009 112.047 230.624 111.085 230.432L107.719 229.759L106.565 235.433Z"   fill="#394E28" ></path><path d="M117.721 233.991C117.817 233.125 118.01 232.452 118.491 231.779C118.971 231.202 119.548 230.721 120.318 230.432C121.087 230.144 121.953 230.047 123.011 230.144C124.261 230.24 125.319 230.624 126.088 231.202C126.858 231.779 127.435 232.548 127.627 233.606L125.896 234.279C125.511 232.836 124.549 232.067 122.818 231.971C121.857 231.875 121.087 232.067 120.51 232.452C119.933 232.836 119.645 233.414 119.645 234.183C119.645 234.664 119.645 235.048 119.837 235.433C120.029 235.722 120.318 236.106 120.799 236.299C121.28 236.587 121.857 236.78 122.722 237.068C124.453 237.549 125.607 238.222 126.281 238.992C126.954 239.761 127.242 240.819 127.146 242.165C127.05 243.031 126.761 243.8 126.281 244.473C125.8 245.147 125.127 245.628 124.261 245.916C123.395 246.205 122.53 246.397 121.472 246.301C120.125 246.205 118.971 245.82 118.106 245.147C117.24 244.473 116.663 243.608 116.375 242.454L118.106 241.781C118.298 242.646 118.683 243.223 119.356 243.704C119.933 244.185 120.703 244.473 121.664 244.57C122.722 244.666 123.492 244.473 124.165 243.993C124.838 243.512 125.127 242.935 125.223 241.973C125.223 241.396 125.223 241.011 125.03 240.627C124.838 240.242 124.453 239.857 123.972 239.569C123.492 239.28 122.722 238.992 121.857 238.703C120.318 238.222 119.164 237.645 118.491 236.876C117.913 236.106 117.625 235.145 117.721 233.991Z"   fill="#394E28" ></path><path d="M132.34 230.624L132.436 246.301L130.416 246.301L130.32 230.624L132.34 230.624Z"   fill="#394E28" ></path><path d="M144.842 231.586L140.707 231.971L141.861 245.82L139.841 246.012L138.687 232.163L134.455 232.548L134.263 230.817L144.65 229.951L144.842 231.586Z"   fill="#394E28" ></path><path d="M154.075 237.357L155.421 243.704L153.498 244.089L152.151 237.837L145.034 229.951L147.246 229.47L152.825 236.01L155.325 227.739L157.441 227.258L154.075 237.357Z"   fill="#394E28" ></path><path d="M174.464 238.03C173.213 238.511 172.059 238.607 170.809 238.415C169.655 238.126 168.501 237.549 167.539 236.683C166.577 235.722 165.808 234.568 165.231 233.125C164.654 231.682 164.365 230.24 164.462 228.893C164.558 227.547 164.942 226.393 165.616 225.335C166.289 224.277 167.251 223.604 168.501 223.027C169.751 222.546 170.905 222.45 172.155 222.642C173.406 222.834 174.464 223.508 175.425 224.373C176.387 225.335 177.156 226.489 177.733 227.932C178.311 229.374 178.599 230.721 178.503 232.067C178.407 233.414 178.022 234.568 177.349 235.626C176.676 236.78 175.714 237.549 174.464 238.03ZM173.887 236.491C174.752 236.106 175.425 235.626 175.906 234.856C176.387 234.087 176.579 233.221 176.579 232.163C176.579 231.105 176.387 230.047 175.906 228.893C175.425 227.739 174.848 226.778 174.079 226.008C173.31 225.239 172.54 224.758 171.675 224.566C170.809 224.373 169.943 224.373 169.078 224.758C168.212 225.143 167.539 225.623 167.058 226.393C166.577 227.162 166.385 228.028 166.385 229.086C166.385 230.144 166.577 231.202 167.058 232.356C167.539 233.51 168.116 234.471 168.886 235.241C169.655 236.01 170.424 236.491 171.29 236.683C172.155 236.876 173.021 236.876 173.887 236.491Z"   fill="#394E28" ></path><path d="M178.984 220.43L181.484 224.854L187.062 221.776L187.928 223.315L182.35 226.393L185.812 232.644L184.081 233.606L176.483 219.949L184.177 215.621L185.043 217.16L178.984 220.43Z"   fill="#394E28" ></path><path d="M204.181 199.753L211.202 214.371L209.663 215.718L198.507 208.216L204.374 220.43L202.835 221.776L189.37 212.544L190.909 211.197L201.873 218.987L196.006 206.773L197.545 205.427L208.798 213.121L202.642 201.099L204.181 199.753Z"   fill="#394E28" ></path><path d="M220.627 204.273C219.858 205.235 218.992 205.908 218.03 206.292C217.068 206.677 216.107 206.773 215.145 206.581C214.183 206.389 213.222 205.908 212.26 205.138L204.566 198.791L205.72 197.348L213.414 203.696C214.472 204.561 215.53 204.946 216.491 204.85C217.549 204.754 218.415 204.273 219.28 203.311C220.05 202.349 220.435 201.291 220.338 200.33C220.242 199.368 219.665 198.31 218.607 197.444L211.01 191.193L212.26 189.654L219.954 196.002C220.915 196.771 221.492 197.637 221.877 198.502C222.262 199.464 222.358 200.426 222.07 201.388C221.973 202.349 221.396 203.311 220.627 204.273Z"   fill="#394E28" ></path><path d="M219.665 177.633L233.033 185.808L231.975 187.539L225.724 183.692L221.589 190.424L227.84 194.271L226.782 196.002L213.414 187.827L214.472 186.096L220.05 189.558L224.185 182.826L218.607 179.364L219.665 177.633Z"   fill="#394E28" ></path><path d="M234.284 172.247L231.783 177.825L235.342 180.999L234.572 182.826L222.454 171.478L223.416 169.362L239.958 170.612L239.092 172.632L234.284 172.247ZM232.456 172.151L224.57 171.381L230.533 176.671L232.456 172.151Z"   fill="#394E28" ></path><path d="M229.186 151.954L244.189 156.282L243.709 157.917L229.379 162.534L241.4 165.996L240.92 167.727L225.916 163.399L226.494 161.283L240.054 156.955L228.609 153.686L229.186 151.954Z"   fill="#394E28" ></path></svg>